<svg width="16" height="25" viewBox="0 0 16 25" fill="none" xmlns="http://www.w3.org/2000/svg">
<path fill-rule="evenodd" clip-rule="evenodd" d="M1.75846 -3.96371e-06H13.7413C14.2321 -3.96371e-06 14.6819 0.202918 15.0091 0.527593C15.3363 0.852269 15.5408 1.2987 15.5408 1.78571V23.2143C15.5408 23.7013 15.3363 24.1477 15.0091 24.4724C14.6819 24.7971 14.2321 25 13.7413 25H1.75846C1.26769 25 0.817823 24.7971 0.490647 24.4724C0.16347 24.1477 -0.0410156 23.7013 -0.0410156 23.2143V1.74513C-0.0410156 1.25811 0.16347 0.811684 0.490647 0.487009C0.817823 0.162334 1.26769 -0.0405884 1.75846 -0.0405884V-3.96371e-06ZM6.17534 23.0519H9.36532C9.36532 23.0519 9.6516 22.9302 9.6516 22.7679C9.6516 22.6055 9.5289 22.4838 9.36532 22.4838H6.17534C6.17534 22.4838 5.88906 22.6055 5.88906 22.7679C5.88906 22.9302 6.01175 23.0519 6.17534 23.0519ZM1.79935 2.39448C1.79935 2.39448 1.51307 2.51623 1.51307 2.67857V21.1445C1.51307 21.1445 1.63577 21.4286 1.79935 21.4286H13.7004C13.7004 21.4286 13.9867 21.3068 13.9867 21.1445V2.67857C13.9867 2.67857 13.864 2.39448 13.7004 2.39448H1.79935ZM13.4141 2.96266H2.08563V20.8604H13.4141V2.96266ZM13.7413 0.568178H1.75846C1.43128 0.568178 1.145 0.689931 0.940515 0.892853C0.736029 1.09578 0.613338 1.37987 0.613338 1.70454V23.2143C0.613338 23.539 0.736029 23.823 0.940515 24.026C1.145 24.2289 1.43128 24.3506 1.75846 24.3506H13.7413C14.0685 24.3506 14.3548 24.2289 14.5592 24.026C14.7637 23.823 14.8864 23.539 14.8864 23.2143V1.74513C14.8864 1.42045 14.7637 1.13636 14.5592 0.933438C14.3548 0.730516 14.0685 0.608762 13.7413 0.608762V0.568178Z" fill="#E63027"/>
</svg>
