<svg width="26" height="27" viewBox="0 0 26 27" fill="none" xmlns="http://www.w3.org/2000/svg">
<path fill-rule="evenodd" clip-rule="evenodd" d="M13 5.55239C15.003 5.55239 16.8489 6.35653 18.145 7.62017C19.4804 8.92211 20.2659 10.6836 20.2659 12.6365C20.2659 13.7469 19.9909 14.7808 19.5589 15.6999C19.0876 16.6189 18.4199 17.4613 17.6344 18.1123V20.0269C17.6344 20.4481 17.4773 20.7927 17.2024 21.0608C17.0453 21.214 16.8882 21.3288 16.6918 21.4054V23.8561C16.6918 24.2773 16.5347 24.622 16.2598 24.89C15.9849 25.1581 15.5921 25.3112 15.1994 25.3112H14.6103V26.2302C14.6103 26.2302 14.4924 26.46 14.3746 26.46H11.6647C11.6647 26.46 11.429 26.3451 11.429 26.2302V25.3112H10.8399C10.4079 25.3112 10.0544 25.1581 9.77946 24.89C9.50453 24.622 9.34743 24.239 9.34743 23.8561V21.4054C9.34743 21.4054 8.99396 21.214 8.83686 21.0991C8.56193 20.831 8.40483 20.4481 8.40483 20.0652V18.1506C7.58006 17.4996 6.95166 16.6955 6.48036 15.7381C6.00906 14.8191 5.77341 13.7469 5.77341 12.6748C5.77341 10.7219 6.59819 8.92211 7.89426 7.65847C9.19033 6.39482 11.0363 5.59068 13.0393 5.59068L13 5.55239ZM6.24471 5.70556L4.16314 3.67606C4.16314 3.67606 3.88822 3.59948 3.80967 3.67606C3.73112 3.75265 3.73112 3.94411 3.80967 4.02069L5.89124 6.05019C5.89124 6.05019 6.16616 6.16507 6.24471 6.05019C6.32326 5.9736 6.32326 5.78214 6.24471 5.70556ZM20.1088 6.05019L22.1903 4.02069C22.1903 4.02069 22.3082 3.75265 22.1903 3.67606C22.1118 3.59948 21.9154 3.59948 21.8369 3.67606L19.7553 5.70556C19.7553 5.70556 19.6767 5.9736 19.7553 6.05019C19.8338 6.12677 20.0302 6.16507 20.1088 6.05019ZM3.18127 12.4067C3.18127 12.4067 3.41692 12.5216 3.41692 12.6365C3.41692 12.7513 3.29909 12.8662 3.18127 12.8662H0.23565C0.23565 12.8662 0 12.7513 0 12.6365C0 12.5216 0.117825 12.4067 0.23565 12.4067H3.18127ZM22.8187 12.9045C22.8187 12.9045 22.5831 12.7896 22.5831 12.6748C22.5831 12.5599 22.7009 12.445 22.8187 12.445H25.7644C25.7644 12.445 26 12.5599 26 12.6748C26 12.7896 25.8822 12.9045 25.7644 12.9045H22.8187ZM13.2356 3.10168C13.2356 3.10168 13.1178 3.33143 13 3.33143C12.8822 3.33143 12.7644 3.21656 12.7644 3.10168V0.229754C12.7644 0.229754 12.8822 0 13 0C13.1178 0 13.2356 0.114877 13.2356 0.229754V3.10168ZM9.77946 22.9754H16.142V21.5203H9.77946V22.9754ZM16.142 23.4732H9.77946V23.8561C9.77946 24.1242 9.89728 24.3539 10.0937 24.5454C10.0937 24.5454 10.5257 24.8517 10.8006 24.8517H15.1601C15.435 24.8517 15.6707 24.7368 15.8671 24.5454C16.0634 24.3539 16.1813 24.1242 16.1813 23.8561V23.4732H16.142ZM14.9245 15.3935V14.0916H13.2356V15.3552C13.2356 15.3552 13.1178 15.585 13 15.585C12.8822 15.585 12.7644 15.4701 12.7644 15.3552V14.0916H11.0755V15.3552V21.0225H14.9637V15.3552L14.9245 15.3935ZM14.9245 13.6321V12.3684C14.9245 12.3684 15.0423 12.1387 15.1601 12.1387C15.2779 12.1387 15.3958 12.2535 15.3958 12.3684V13.8618V21.0608H16.0634C16.3384 21.0608 16.574 20.9459 16.7704 20.7544C16.9668 20.563 17.0846 20.3332 17.0846 20.0652V18.0357C17.0846 18.0357 17.0846 17.8825 17.1631 17.8442C17.9486 17.2316 18.6163 16.4274 19.0483 15.5467C19.4804 14.666 19.716 13.7087 19.716 12.6748C19.716 10.8367 18.9698 9.19016 17.713 8.0031C16.4955 6.81603 14.8066 6.05019 12.9214 6.05019C11.0363 6.05019 9.34743 6.77774 8.12991 8.0031C6.91239 9.19016 6.12689 10.8367 6.12689 12.6748C6.12689 13.7087 6.36254 14.666 6.79456 15.5467C7.22659 16.4274 7.89426 17.2316 8.67976 17.8442C8.75831 17.8825 8.79758 17.9591 8.79758 18.0357V20.0652C8.79758 20.3332 8.91541 20.563 9.07251 20.7544C9.07251 20.7544 9.50453 21.0608 9.77946 21.0608H10.4471V13.8618V12.3301C10.4471 12.3301 10.565 12.1004 10.6828 12.1004C10.8006 12.1004 10.9184 12.2153 10.9184 12.3301V13.5938H12.6073V12.3301C12.6073 12.3301 12.7251 12.1004 12.8429 12.1004C12.9607 12.1004 13.0785 12.2153 13.0785 12.3301V13.5938H14.7674L14.9245 13.6321ZM14.0604 25.3495H11.861V26.0388H14.0604V25.3495Z" fill="#E63027"/>
</svg>
