<svg width="28" height="25" viewBox="0 0 28 25" fill="none" xmlns="http://www.w3.org/2000/svg">
<g clip-path="url(#clip0_144_222)">
<path d="M7.62556 10.2567C7.41362 10.2567 7.2084 10.2116 7.01552 10.1215C6.2855 9.78339 5.9659 8.9111 6.30232 8.17743L9.66649 0.851997C9.82909 0.496996 10.1207 0.226518 10.4862 0.0912795C10.8518 -0.0439592 11.2477 -0.0281814 11.6009 0.136359C12.3309 0.474456 12.6505 1.34675 12.313 2.08042L8.9488 9.40585C8.71107 9.92313 8.19186 10.2567 7.62444 10.2567H7.62556ZM10.9897 0.676187C10.8978 0.676187 10.8069 0.691965 10.7184 0.725774C10.5221 0.799029 10.3651 0.94441 10.2765 1.13487L6.91236 8.4603C6.73069 8.85475 6.90338 9.3247 7.29587 9.50728C7.40016 9.55574 7.51118 9.58053 7.62444 9.58053C7.92946 9.58053 8.2098 9.40021 8.33764 9.12185L11.7029 1.79641C11.8846 1.40197 11.7119 0.932014 11.3194 0.749441C11.214 0.700981 11.103 0.676187 10.9909 0.676187H10.9897Z" fill="#E63027"/>
<path d="M19.962 10.2568C19.3945 10.2568 18.8753 9.92203 18.6376 9.40475L15.2734 2.07932C15.1097 1.72432 15.094 1.32649 15.2297 0.959089C15.3643 0.591691 15.6334 0.299801 15.9866 0.13526C16.3399 -0.02928 16.7357 -0.0450579 17.1013 0.0901808C17.4669 0.22542 17.7573 0.495897 17.921 0.850899L21.2852 8.17633C21.4489 8.53133 21.4646 8.92916 21.3289 9.29655C21.1944 9.66395 20.9252 9.95584 20.572 10.1204C20.3791 10.2105 20.1739 10.2556 19.962 10.2556V10.2568ZM16.5967 0.676215C16.4845 0.676215 16.3735 0.701009 16.2692 0.74947C15.8756 0.932042 15.704 1.402 15.8846 1.79644L19.2488 9.12187C19.3766 9.40024 19.657 9.58056 19.962 9.58056C20.0752 9.58056 20.1862 9.55576 20.2894 9.5073C20.4801 9.4194 20.6247 9.26162 20.6976 9.06327C20.7705 8.86492 20.7615 8.65079 20.6741 8.46033L17.3099 1.1349C17.2224 0.943312 17.0654 0.79793 16.8681 0.724676C16.7795 0.691993 16.6875 0.675088 16.5967 0.675088V0.676215Z" fill="#E63027"/>
<path d="M25.5677 11.9472H2.0185C0.904962 11.9472 0 11.0366 0 9.91866C0 9.37432 0.210821 8.86492 0.593216 8.484C0.970003 8.10195 1.47687 7.89008 2.0185 7.89008H4.82198V8.56627H2.0185C1.65742 8.56627 1.31988 8.70714 1.06869 8.96184C0.813008 9.21654 0.672834 9.55577 0.672834 9.91866C0.672834 10.6647 1.27614 11.271 2.0185 11.271H25.5677C25.9288 11.271 26.2652 11.1302 26.5175 10.8755C26.7732 10.6208 26.9134 10.2815 26.9134 9.91866C26.9134 9.17259 26.3101 8.56627 25.5677 8.56627H22.7642V7.89008H25.5677C26.6801 7.89008 27.5862 8.80068 27.5862 9.91866C27.5862 10.463 27.3754 10.9724 26.993 11.3533C26.6162 11.7354 26.1093 11.9472 25.5677 11.9472Z" fill="#E63027"/>
<path d="M18.5591 7.89008H9.30762V8.56627H18.5591V7.89008Z" fill="#E63027"/>
<path d="M20.9094 25H20.8937L6.54667 24.9301C5.01597 24.9222 3.72076 23.8166 3.46621 22.2997L1.61255 11.2687L25.9613 11.3882L24 22.4C23.7309 23.909 22.4334 25 20.9094 25ZM2.40874 11.9483L4.12895 22.1859C4.32968 23.3771 5.34678 24.246 6.55003 24.2528L20.8971 24.3227H20.9094C22.106 24.3227 23.1264 23.465 23.3372 22.2805L25.1573 12.0599L2.40874 11.9483Z" fill="#E63027"/>
<path d="M13.7415 22.4293H13.7325C13.2683 22.4271 12.8332 22.2434 12.5057 21.9121C12.1794 21.5807 12 21.1412 12.0022 20.6746C12.0067 19.711 12.7917 18.9267 13.7493 18.9368C14.2136 18.9391 14.6487 19.1228 14.9761 19.4541C15.3025 19.7854 15.4819 20.225 15.4797 20.6915C15.4774 21.1581 15.2946 21.5954 14.9649 21.9245C14.6375 22.2502 14.2035 22.4305 13.7426 22.4305L13.7415 22.4293ZM13.7415 19.6119C13.1561 19.6119 12.6795 20.0886 12.6762 20.6769C12.6751 20.9631 12.7838 21.2325 12.9846 21.4353C13.1853 21.6382 13.4522 21.7509 13.7359 21.752C14.0196 21.7554 14.2887 21.6438 14.4906 21.4421C14.6924 21.2404 14.8046 20.9721 14.8057 20.687C14.8068 20.4008 14.698 20.1314 14.4973 19.9286C14.2966 19.7257 14.0297 19.613 13.746 19.6107H13.7404L13.7415 19.6119Z" fill="#E63027"/>
<path d="M13.7663 17.3579H13.7573C12.7985 17.3534 12.0225 16.5656 12.0281 15.602C12.0303 15.1355 12.2131 14.6982 12.5428 14.3691C12.8725 14.0412 13.311 13.8631 13.7741 13.8631C14.7329 13.8676 15.5089 14.6554 15.5033 15.6189C15.4988 16.5791 14.7194 17.3568 13.7651 17.3568L13.7663 17.3579ZM13.7663 14.5404C13.4837 14.5404 13.2179 14.6509 13.0172 14.8503C12.8153 15.0521 12.7032 15.3203 12.7021 15.6054C12.6987 16.196 13.1753 16.6783 13.7618 16.6817H13.7674C14.3528 16.6817 14.8293 16.205 14.8327 15.6167C14.8361 15.0262 14.3595 14.5438 13.773 14.5404H13.7674H13.7663Z" fill="#E63027"/>
<path d="M7.87881 17.3286H7.86984C6.91105 17.3241 6.13505 16.5363 6.14066 15.5727C6.14514 14.6125 6.92451 13.8349 7.87881 13.8349H7.88778C8.84657 13.8394 9.62257 14.6272 9.61697 15.5907C9.61472 16.0573 9.43194 16.4946 9.10225 16.8237C8.7748 17.1494 8.34082 17.3297 7.87993 17.3297L7.87881 17.3286ZM7.87881 14.5111C7.29344 14.5111 6.81685 14.9878 6.81349 15.5761C6.81013 16.1666 7.28672 16.649 7.8732 16.6524H7.87881C8.1614 16.6524 8.42717 16.5419 8.6279 16.3424C8.82975 16.1407 8.94189 15.8725 8.94413 15.5874C8.9475 14.9968 8.4709 14.5145 7.88442 14.5111H7.87881Z" fill="#E63027"/>
<path d="M7.85429 22.4H7.84532C7.38106 22.3978 6.94596 22.2141 6.61852 21.8828C6.29219 21.5514 6.11277 21.1119 6.11501 20.6453C6.11725 20.1787 6.30004 19.7415 6.62973 19.4124C6.95942 19.0833 7.39788 18.9064 7.86102 18.9064C8.32527 18.9086 8.76037 19.0923 9.08782 19.4237C9.41414 19.755 9.59356 20.1945 9.59132 20.6611C9.58908 21.1277 9.40629 21.5649 9.0766 21.894C8.74916 22.2197 8.31518 22.4 7.85429 22.4ZM7.85429 19.5826C7.5717 19.5826 7.30593 19.693 7.1052 19.8925C6.90335 20.0942 6.79121 20.3624 6.79009 20.6476C6.78897 20.9327 6.89774 21.2032 7.09847 21.406C7.2992 21.6089 7.56609 21.7216 7.8498 21.7227C8.13464 21.7205 8.40265 21.6145 8.6045 21.4128C8.80635 21.2111 8.91849 20.9428 8.91961 20.6577C8.92073 20.3726 8.81196 20.1021 8.61123 19.8993C8.4105 19.6964 8.14361 19.5837 7.85989 19.5826H7.85429Z" fill="#E63027"/>
<path d="M19.068 22.4553H19.059C18.1002 22.4508 17.3254 21.663 17.3299 20.6994C17.3343 19.7392 18.1137 18.9616 19.068 18.9616H19.077C20.0358 18.9661 20.8106 19.7539 20.8062 20.7175C20.8017 21.6777 20.0223 22.4553 19.068 22.4553ZM19.068 19.6378C18.4826 19.6378 18.0061 20.1145 18.0027 20.7028C17.9993 21.2933 18.4759 21.7757 19.0624 21.7791H19.068C19.6534 21.7791 20.13 21.3024 20.1333 20.7141C20.1367 20.1235 19.6601 19.6412 19.0736 19.6378H19.068Z" fill="#E63027"/>
<path d="M19.0928 17.3838H19.0838C18.6196 17.3815 18.1834 17.1979 17.857 16.8665C17.5307 16.5352 17.3513 16.0957 17.3535 15.6291C17.3558 15.1625 17.5386 14.7252 17.8683 14.3962C18.1957 14.0705 18.6297 13.8901 19.0906 13.8901H19.0995C19.5638 13.8924 19.9989 14.0761 20.3263 14.4074C20.6527 14.7388 20.8321 15.1783 20.8298 15.6449C20.8276 16.1114 20.6448 16.5487 20.3151 16.8778C19.9877 17.2035 19.5537 17.3838 19.0928 17.3838ZM19.0928 14.5663C18.8102 14.5663 18.5445 14.6768 18.3437 14.8763C18.1419 15.078 18.0297 15.3462 18.0275 15.6313C18.0252 15.9165 18.1351 16.1869 18.3359 16.3898C18.5366 16.5927 18.8035 16.7054 19.0872 16.7065C19.3743 16.7087 19.6401 16.5983 19.8419 16.3966C20.0438 16.1948 20.1559 15.9266 20.157 15.6415C20.1581 15.3552 20.0494 15.0859 19.8486 14.883C19.6479 14.6802 19.381 14.5675 19.0973 14.5663H19.0917H19.0928Z" fill="#E63027"/>
</g>
<defs>
<clipPath id="clip0_144_222">
<rect width="27.5862" height="25" fill="white"/>
</clipPath>
</defs>
</svg>
