<svg width="24" height="25" viewBox="0 0 24 25" fill="none" xmlns="http://www.w3.org/2000/svg">
<path fill-rule="evenodd" clip-rule="evenodd" d="M5.14019 24.4548H18.419V22.5857C18.419 22.2741 18.3022 22.0016 18.1075 21.8069C17.9128 21.6121 17.6402 21.4953 17.3287 21.4953H6.23053C5.919 21.4953 5.64642 21.6121 5.45171 21.8069C5.25701 22.0016 5.14019 22.2741 5.14019 22.5857V24.4548ZM4.8676 0H18.7305C18.7305 0 19.0031 0.116822 19.0031 0.272586V1.75234H21.8847C22.352 1.75234 22.7804 1.94704 23.0919 2.25857C23.4034 2.57009 23.5981 2.99844 23.5981 3.46573V9.11215C23.5981 9.38473 23.5203 9.65732 23.4034 9.89097C23.2866 10.1246 23.1308 10.3193 22.8972 10.4751L18.9252 13.3956L15.2259 16.1215C15.2259 16.1215 14.9533 16.3551 14.8754 16.5109C14.7975 16.6667 14.7586 16.8224 14.7586 17.0171V20.9891H17.3287C17.7959 20.9891 18.2243 21.1838 18.5358 21.4953C18.8474 21.8069 19.0421 22.2352 19.0421 22.7025V24.8442C19.0421 24.8442 18.9252 25.1168 18.7695 25.1168H4.82866C4.82866 25.1168 4.55607 25 4.55607 24.8442V22.7025C4.55607 22.2352 4.75078 21.8069 5.06231 21.5343C5.37383 21.2227 5.80218 21.028 6.26947 21.028H9.07321V17.2897C9.07321 17.2897 9.07321 16.9393 8.95639 16.7835C8.8785 16.6277 8.76168 16.5109 8.60592 16.3941L4.6729 13.4735L0.700935 10.3972C0.46729 10.2414 0.311526 10.0467 0.194704 9.81308C0.0778816 9.57944 0 9.30685 0 9.03427V3.42679C0 2.9595 0.194704 2.53115 0.506231 2.25857C0.817757 1.94704 1.24611 1.75234 1.7134 1.75234H4.59502V0.272586C4.59502 0.272586 4.71184 0 4.8676 0ZM19.0031 2.29751V12.5389L22.5467 9.92991C22.5467 9.92991 22.8193 9.69626 22.8972 9.5405C22.9751 9.38474 23.014 9.22897 23.014 9.03427V3.42679C23.014 3.11526 22.8972 2.84268 22.7025 2.64797C22.5078 2.45327 22.2352 2.33645 21.9237 2.33645H19.0421L19.0031 2.29751ZM4.55607 12.5389V2.29751H1.67445C1.36293 2.29751 1.09034 2.41433 0.895639 2.60903C0.700935 2.80374 0.584112 3.07632 0.584112 3.38785V9.03427C0.584112 9.03427 0.623053 9.38474 0.700935 9.5405C0.778816 9.69626 0.895639 9.81308 1.0514 9.92991L4.59502 12.5389H4.55607ZM18.419 0.545171H5.14019V12.9673L8.95639 15.81C9.19003 15.9657 9.34579 16.1604 9.46262 16.3941C9.57944 16.6277 9.61838 16.8614 9.61838 17.134V20.8723H14.1355V16.9003C14.1355 16.6277 14.2134 16.3551 14.3302 16.1215C14.447 15.8878 14.6028 15.6931 14.8364 15.5374L18.419 12.9283V0.545171ZM8.02181 6.38629C8.02181 6.38629 7.86604 6.38629 7.8271 6.46417C7.71028 6.581 7.74922 6.7757 7.8271 6.85358L9.7352 8.52804L9.19003 10.9813C9.19003 10.9813 9.19003 11.1371 9.19003 11.215C9.26791 11.3318 9.42368 11.4097 9.57944 11.3318L11.7601 10.0467L13.9408 11.3318C13.9408 11.3318 14.0576 11.3707 14.1355 11.3318C14.2913 11.3318 14.3692 11.1371 14.3302 10.9813L13.785 8.52804L15.6931 6.85358C15.6931 6.85358 15.771 6.73676 15.771 6.65888C15.771 6.50312 15.6542 6.38629 15.5374 6.34735L13.0062 6.11371L11.9938 3.77726C11.9938 3.77726 11.9159 3.66044 11.838 3.6215C11.6822 3.54361 11.5265 3.6215 11.4875 3.77726L10.4751 6.11371L7.98287 6.34735L8.02181 6.38629ZM10.7477 6.69782L8.72274 6.89252L10.2414 8.25545C10.2414 8.25545 10.3583 8.41121 10.3193 8.52804L9.85203 10.514L11.6044 9.46262C11.6044 9.46262 11.7991 9.42368 11.8769 9.46262L13.6293 10.514L13.2009 8.52804C13.2009 8.52804 13.2009 8.29439 13.2788 8.21651L14.7975 6.85358L12.7726 6.65888C12.7726 6.65888 12.5779 6.581 12.5389 6.50311L11.7212 4.63396L10.9034 6.50311C10.9034 6.50311 10.7866 6.65888 10.6698 6.69782H10.7477Z" fill="#E63027"/>
</svg>
