<svg width="16" height="25" viewBox="0 0 16 25" fill="none" xmlns="http://www.w3.org/2000/svg">
<path fill-rule="evenodd" clip-rule="evenodd" d="M1.87688 6.83183L9.87237 4.69219L10.0601 3.79129L8.25826 0.412912C8.25826 0.412912 8.25826 0.112612 8.37087 0.0375366C8.40841 0.0375366 8.44595 0.0375366 8.48348 0.0375366H13.964C13.964 0.0375366 14.2267 0.150149 14.2267 0.300299C14.2267 0.337837 14.2267 0.375374 14.2267 0.412912L12.5375 3.82883L13.3258 7.54504L14.4144 12.7628L15.503 17.9805L15.8408 19.6321C15.8408 19.6321 15.8408 19.7823 15.7658 19.8574L11.4865 24.9249C11.4865 24.9249 11.1862 25.0375 11.1111 24.9249L7.09459 20.3453L6.71922 19.8949C6.71922 19.8949 6.60661 19.7447 6.64414 19.6321L9.04655 8.52102L9.30931 7.35736L2.55255 9.27177C2.55255 9.27177 2.43994 9.27177 2.4024 9.27177L0.225225 8.82132C0.225225 8.82132 0 8.63363 0 8.52102C0 8.44595 0.0375375 8.40841 0.0750751 8.37087L1.76426 6.86937C1.76426 6.86937 1.83934 6.83183 1.87688 6.79429V6.83183ZM15.015 18.3183L7.77027 20.2703L11.2988 24.2868L15.2778 19.5571L15.015 18.3183ZM7.35736 19.8198L14.9024 17.7928L13.9264 13.1381L8.25826 14.6396L7.16967 19.5946L7.35736 19.8198ZM8.37087 14.039L13.8138 12.5751L12.8378 7.92042L9.53453 8.82132L8.40841 14.0766L8.37087 14.039ZM9.64715 8.22072L12.7252 7.3949L12.012 4.05405H10.548L10.3604 4.99249L9.90991 7.05706L9.64715 8.22072ZM9.42192 6.79429L9.75976 5.33033L2.06456 7.35736L0.825826 8.44595L2.43994 8.78378L9.42192 6.79429ZM10.5105 3.52853H12.0871L13.5511 0.563062H8.93394L10.5105 3.52853Z" fill="#E63027"/>
</svg>
