<svg width="274" height="49" viewBox="0 0 274 49" fill="none" xmlns="http://www.w3.org/2000/svg">
<path d="M50.1941 29.2881C49.6978 29.2881 49.4993 29.1236 49.4993 28.268V21.0282C49.4993 19.679 48.8045 18.4943 47.6464 17.8361C46.6207 17.1451 45.2641 16.816 43.742 16.816C41.8891 16.816 40.5325 17.1451 39.3413 17.8361C37.9847 18.6917 37.2899 19.8764 37.1245 21.5547V21.7193H40.334V21.5547C40.6649 20.37 41.856 19.5144 43.5435 19.5144C44.4038 19.5144 44.9001 19.679 45.3964 19.8435C46.0913 20.1726 46.4221 20.6991 46.4221 21.3573C46.4221 22.7065 45.231 22.8711 43.7089 23.0356C43.2126 23.0356 42.6832 23.2001 42.1869 23.2001C40.8303 23.3647 39.4737 23.5292 38.448 24.2203C37.2568 24.9114 36.7605 26.0631 36.7605 27.7743C36.7605 30.6373 39.3083 31.9866 41.6906 31.9866C43.2126 31.9866 45.2641 31.4929 46.4552 30.3083C46.7861 31.4929 47.4809 31.9866 48.8375 31.9866H50.889V36.8899H54.0985V29.9792C54.5948 30.6702 55.2897 31.1639 56.1499 31.4929C57.0102 31.822 57.8374 31.9866 58.8631 31.9866C60.9146 31.9866 62.4366 31.131 63.6278 29.7817C64.6535 28.4325 65.1498 26.5897 65.1498 24.7139C65.1498 22.5091 64.6535 20.6662 63.4624 19.317C62.2712 17.8032 60.5837 17.1122 58.3668 17.1122C57.3411 17.1122 56.5139 17.2767 55.8191 17.6058C55.1242 17.9349 54.4625 18.4614 54.1316 19.1195V17.4412H51.0875V29.2881H50.1941ZM46.2898 26.5897C46.2898 27.6098 45.5949 28.268 45.0986 28.63C44.4038 28.959 43.5766 29.321 42.8817 29.321C41.856 29.321 40.1685 28.9919 40.1685 27.6427C40.1685 25.9644 41.3597 25.6024 42.7163 25.4379C43.0472 25.4379 43.5766 25.2733 43.9075 25.2733C44.9332 25.1088 45.7604 25.1088 46.4552 24.5823L46.2898 26.5897ZM58.1683 29.2881C55.786 29.2881 54.2639 27.4453 54.2639 24.3848C54.2639 21.3244 55.6205 19.4815 58.1683 19.4815C60.7161 19.4815 61.9072 22.0154 61.9072 24.3848C61.9072 26.7542 60.8815 29.2881 58.1683 29.2881ZM65.977 31.4929H69.1865V17.3096H65.977V31.4929ZM65.977 15.7958H69.1865V12.6038H65.977V15.7958ZM81.2636 24.2203C80.4033 23.5292 79.2121 23.2001 78.0541 23.0356C77.7232 23.0356 77.5578 22.8711 77.1938 22.8711C75.1423 22.542 73.4549 22.18 73.4549 20.8308C73.4549 19.6461 75.3078 19.4815 76.0026 19.4815C77.6901 19.4815 78.5504 19.9752 78.7158 21.3244H82.1239V21.1598C81.9584 19.6461 81.2636 18.4614 80.0724 17.7703C79.0467 17.0792 77.6901 16.7502 76.1681 16.7502C75.3078 16.7502 73.6203 16.9147 72.2637 17.6058C70.9071 18.2968 70.2123 19.4486 70.2123 20.7979C70.2123 23.6608 72.4291 24.5165 74.7784 25.0101C75.1093 25.0101 75.4732 25.1746 75.8041 25.1746C77.657 25.5037 79.3776 25.8657 79.3776 27.2149C79.3776 27.544 79.2121 27.906 79.0467 28.2351C78.3519 28.9261 76.9953 28.9261 76.3335 28.9261C74.4806 28.9261 73.4549 28.0705 73.2894 26.5567H70.0799V26.7213C70.0799 28.3996 70.7747 29.5843 71.9328 30.4399C72.9585 31.2955 74.646 31.6246 76.3335 31.6246C78.021 31.6246 79.543 31.2955 80.5687 30.6044C81.9253 29.7488 82.6202 28.5641 82.6202 27.0504C82.7856 25.9315 82.2562 24.9114 81.2636 24.2203Z" fill="black"/>
<path d="M32.2275 30.9665L21.871 36.857L11.3491 30.9665V18.9879L21.7056 13.0974L32.0621 18.9879L32.2275 30.9665ZM21.2093 24.2203C18.9924 24.3849 15.9483 25.0759 14.9226 25.7341C13.566 26.5897 13.4006 28.268 14.2278 29.6172C15.055 30.9665 16.941 31.131 18.1321 30.3083C19.3233 29.6172 20.5144 27.1162 21.5402 25.2405C22.5659 26.7542 24.5842 29.9792 25.61 30.6374C26.9666 31.493 28.8195 30.9665 29.6798 29.7818C30.54 28.4325 30.0106 26.7542 28.654 25.8986C27.4629 25.2076 24.2534 24.3849 22.0365 24.2203C22.8968 22.7065 24.4188 19.4816 24.5842 18.4943C24.5842 16.9806 23.3931 15.7959 21.7056 15.6313C20.1836 15.6313 18.827 16.816 18.827 18.3298C18.827 19.5145 20.349 22.7065 21.2093 24.2203Z" fill="#FBA517"/>
<path d="M85.4989 29.1237C85.4989 29.4528 85.4989 29.8148 85.6643 29.9793C85.8298 30.3084 86.3592 30.6704 87.0209 30.6704C87.3518 30.6704 87.7158 30.5058 88.0467 30.3413C88.3775 30.1767 88.543 29.8477 88.543 29.3211C88.543 28.7946 88.2121 28.4655 87.6827 28.301C87.3518 28.1364 86.8224 28.1364 86.3261 28.1364V26.9518C87.0209 26.9518 87.3518 26.9518 87.6827 26.7872C88.179 26.6227 88.3775 26.2936 88.3775 25.7671C88.3775 25.438 88.2121 25.2734 88.0467 24.9115C87.8812 24.7469 87.5503 24.5824 87.0209 24.5824C86.4915 24.5824 86.1607 24.7469 85.9952 24.9115C85.8298 25.076 85.6643 25.4051 85.6643 25.9316H83.8114C83.8114 25.6025 83.9769 25.076 83.9769 24.7469C84.1423 24.4178 84.3077 24.0559 84.6717 23.8913C84.8371 23.7268 85.168 23.5622 85.532 23.3977C85.896 23.2332 86.3923 23.2332 86.8886 23.2332C87.9143 23.2332 88.5761 23.3977 89.2709 23.9242C89.7672 24.2533 90.1312 24.9444 90.1312 25.6025C90.1312 26.0962 89.9657 26.4581 89.6349 26.7872C89.4694 26.9518 89.1386 27.1163 88.94 27.2808C89.1055 27.2808 89.4363 27.4454 89.8003 27.6099C90.2966 27.939 90.4952 28.4655 90.4952 29.1237C90.4952 29.8148 90.1643 30.4729 89.6349 30.9665C89.1386 31.4601 88.1128 31.8221 87.0871 31.8221C85.7305 31.8221 84.7048 31.4931 84.2085 30.6375C83.8776 30.3084 83.7122 29.6173 83.7122 29.1237H85.4989Z" fill="black"/>
<path d="M98.7339 23.2332H105.682V25.2735H101.116V26.7872H105.186V28.8275H101.116V31.855H98.7339C98.7339 31.8221 98.7339 23.2332 98.7339 23.2332Z" fill="black"/>
<path d="M106.179 23.2332H110.249C111.605 23.2332 112.465 23.5622 113.127 24.2533C113.623 24.7469 113.987 25.438 113.987 26.2936C113.987 27.6428 113.293 28.4984 112.135 28.992L114.186 32.0196H111.473L109.785 29.4857H108.76V32.0196H106.377L106.179 23.2332ZM110.083 27.4454C110.943 27.4454 111.44 27.1163 111.44 26.4252C111.44 25.7342 110.943 25.4051 110.083 25.4051H108.561V27.4454H110.083Z" fill="black"/>
<path d="M114.153 27.6099C114.153 25.076 116.204 23.0686 118.917 23.0686C121.631 23.0686 123.484 25.1089 123.484 27.4454C123.484 29.9793 121.432 31.9867 118.719 31.9867C116.039 31.9867 114.153 30.1438 114.153 27.6099ZM120.969 27.6099C120.969 26.2607 120.109 25.2405 118.752 25.2405C117.395 25.2405 116.535 26.2607 116.535 27.6099C116.535 28.7946 117.395 29.9793 118.752 29.9793C120.109 29.9793 120.969 28.7946 120.969 27.6099Z" fill="black"/>
<path d="M124.178 23.2332H126.726L128.778 26.6227L130.829 23.2332H133.377V31.8221H130.995V26.9188L128.778 30.3084L126.561 26.9188V31.8221H124.178V23.2332Z" fill="black"/>
<path d="M137.083 23.2332H140.821C143.038 23.2332 144.395 24.4178 144.395 26.2607C144.395 28.301 142.873 29.2882 140.656 29.2882H139.465V31.8221H137.083V23.2332ZM140.623 27.6099C141.483 27.6099 141.98 27.1163 141.98 26.4252C141.98 25.7342 141.483 25.2405 140.623 25.2405H139.432V27.6099H140.623Z" fill="black"/>
<path d="M144.693 28.1035V23.2332H147.075V27.9719C147.075 29.1566 147.77 29.8147 148.597 29.8147C149.623 29.8147 150.119 29.3211 150.119 27.9719V23.2332H152.502V27.9719C152.502 30.6704 150.98 32.0196 148.432 32.0196C146.248 31.9867 144.693 30.802 144.693 28.1035Z" fill="black"/>
<path d="M153.527 23.2332H157.597C158.954 23.2332 159.814 23.5622 160.476 24.2533C160.972 24.7469 161.336 25.438 161.336 26.2936C161.336 27.6428 160.641 28.4984 159.483 28.992L161.535 32.0196H158.821L157.134 29.4857H156.108V32.0196H153.726L153.527 23.2332ZM157.597 27.4454C158.457 27.4454 158.954 27.1163 158.954 26.4252C158.954 25.7342 158.457 25.4051 157.597 25.4051H156.075V27.4454H157.597Z" fill="black"/>
<path d="M161.832 23.2332H165.571C167.788 23.2332 169.145 24.4178 169.145 26.2607C169.145 28.301 167.623 29.2882 165.406 29.2882H164.215V31.8221H161.832V23.2332ZM165.406 27.6099C166.266 27.6099 166.762 27.1163 166.762 26.4252C166.762 25.7342 166.266 25.2405 165.406 25.2405H164.215V27.6099H165.406Z" fill="black"/>
<path d="M169.31 27.6099C169.31 25.076 171.361 23.0686 174.075 23.0686C176.788 23.0686 178.641 25.1089 178.641 27.4454C178.641 29.9793 176.589 31.9867 173.876 31.9867C171.163 31.9867 169.31 30.1438 169.31 27.6099ZM176.093 27.6099C176.093 26.2607 175.233 25.2405 173.876 25.2405C172.52 25.2405 171.659 26.2607 171.659 27.6099C171.659 28.7946 172.52 29.9793 173.876 29.9793C175.233 29.9793 176.093 28.7946 176.093 27.6099Z" fill="black"/>
<path d="M178.476 30.6374L179.832 29.1236C180.692 29.8147 181.685 30.1438 182.711 30.1438C183.406 30.1438 183.737 29.9792 183.737 29.4527C183.737 29.1236 183.406 28.9591 182.215 28.5971C180.362 28.268 179.005 27.577 179.005 25.8986C179.005 24.3849 180.362 23.2002 182.413 23.2002C183.935 23.2002 184.961 23.5293 185.987 24.3849L184.795 26.0632C183.935 25.5696 183.108 25.2076 182.413 25.2076C181.917 25.2076 181.553 25.3721 181.553 25.7012C181.553 26.0303 181.884 26.1948 183.075 26.5568C185.126 27.0504 186.284 27.577 186.284 29.2553C186.284 30.9336 184.928 32.1183 182.711 32.1183C181.023 31.9866 179.667 31.493 178.476 30.6374Z" fill="black"/>
<path d="M186.615 23.2332H193.563V25.2735H188.997V26.6227H193.233V28.4655H188.997V29.8148H193.563V31.855H186.615V23.2332Z" fill="black"/>
<path d="M199.155 25.405H196.608V23.2002H204.251V25.2405H201.703V31.8221H199.321L199.155 25.405Z" fill="black"/>
<path d="M203.92 27.6099C203.92 25.076 205.971 23.0686 208.685 23.0686C211.398 23.0686 213.251 25.1089 213.251 27.4454C213.251 29.9793 211.199 31.9867 208.486 31.9867C205.938 31.9867 203.92 30.1438 203.92 27.6099ZM210.868 27.6099C210.868 26.2607 210.008 25.2405 208.651 25.2405C207.295 25.2405 206.435 26.2607 206.435 27.6099C206.435 28.7946 207.295 29.9793 208.651 29.9793C210.008 29.9793 210.868 28.7946 210.868 27.6099Z" fill="black"/>
<path d="M216.824 23.2332H220.563C222.78 23.2332 224.137 24.4178 224.137 26.2607C224.137 28.301 222.615 29.2882 220.398 29.2882H219.207V31.8221H216.824V23.2332ZM220.365 27.6099C221.225 27.6099 221.721 27.1163 221.721 26.4252C221.721 25.7342 221.225 25.2405 220.365 25.2405H219.173V27.6099H220.365Z" fill="black"/>
<path d="M224.434 23.2332H228.504C229.861 23.2332 230.721 23.5622 231.383 24.2533C231.879 24.7469 232.243 25.438 232.243 26.2936C232.243 27.6428 231.548 28.4984 230.39 28.992L232.442 32.0196H229.728L228.041 29.4857H226.85V32.0196H224.467V23.2332H224.434ZM228.504 27.4454C229.364 27.4454 229.861 27.1163 229.861 26.4252C229.861 25.7342 229.364 25.4051 228.504 25.4051H226.817V27.4454H228.504Z" fill="black"/>
<path d="M232.409 27.6099C232.409 25.076 234.46 23.0686 237.173 23.0686C239.887 23.0686 241.739 25.1089 241.739 27.4454C241.739 29.9793 239.688 31.9867 236.975 31.9867C234.262 31.9867 232.409 30.1438 232.409 27.6099ZM239.357 27.6099C239.357 26.2607 238.497 25.2405 237.14 25.2405C235.784 25.2405 234.923 26.2607 234.923 27.6099C234.923 28.7946 235.784 29.9793 237.14 29.9793C238.497 29.9793 239.357 28.7946 239.357 27.6099Z" fill="black"/>
<path d="M242.434 23.2332H249.383V25.2735H244.816V26.7872H248.886V28.8275H244.816V31.855H242.434V23.2332Z" fill="black"/>
<path d="M249.879 23.2332H252.261V31.8221H249.879V23.2332Z" fill="black"/>
<path d="M255.305 25.405H252.791V23.2002H260.401V25.2405H257.853V31.8221H255.471V25.405H255.305Z" fill="black"/>
</svg>
